<?xml version="1.0" encoding="utf-8"?>
<!-- Generator: Adobe Illustrator 22.0.1, SVG Export Plug-In . SVG Version: 6.00 Build 0)  -->
<svg version="1.1" id="Layer_1" xmlns="http://www.w3.org/2000/svg" xmlns:xlink="http://www.w3.org/1999/xlink" x="0px" y="0px"
	 viewBox="0 0 47.4 45.8" style="enable-background:new 0 0 47.4 45.8;" xml:space="preserve">
<style type="text/css">
	.st0{enable-background:new    ;}
	.st1{fill:#FFFFFF;}
</style>
<title>Briefcase - simple-line-icons</title>
<desc>Created with Sketch.</desc>
<g id="Design-3">
	<g id="_x33_" transform="translate(-958.000000, -417.000000)">
		<g id="Group-3" transform="translate(943.000000, 402.000000)">
			<g class="st0">
				<path class="st1" d="M51.8,28.5c0.5,0,0.9,0.2,1.3,0.6s0.6,0.8,0.6,1.3V50c0,0.5-0.2,0.9-0.6,1.3s-0.8,0.6-1.3,0.6H25.6
					c-0.5,0-0.9-0.2-1.3-0.6s-0.6-0.8-0.6-1.3V38.8V37v-6.6c0-0.5,0.2-0.9,0.6-1.3s0.8-0.6,1.3-0.6h7.5v-1.8c0-0.8,0.3-1.4,0.8-2
					s1.2-0.8,2-0.8h5.6c0.8,0,1.4,0.3,2,0.8s0.8,1.2,0.8,2v1.8H51.8z M25.6,30.4V37h10.3v-1c0-0.5,0.2-0.9,0.5-1.3
					c0.4-0.4,0.8-0.6,1.3-0.6h1.9c0.5,0,0.9,0.2,1.3,0.6s0.6,0.8,0.6,1.3v1h10.3v-6.6H25.6z M25.6,50h26.2V38.8H41.5v1.9
					c0,0.5-0.2,1-0.6,1.3s-0.8,0.5-1.3,0.5h-1.9c-0.5,0-1-0.2-1.3-0.5c-0.4-0.4-0.5-0.8-0.5-1.3v-1.9H25.6V50z M34.9,26.7v1.8h7.5
					v-1.8c0-0.3-0.1-0.5-0.3-0.7s-0.4-0.3-0.7-0.3h-5.6c-0.3,0-0.5,0.1-0.7,0.3C35,26.2,34.9,26.4,34.9,26.7z M39.6,40.7V36h-1.9
					v4.7H39.6z"/>
			</g>
		</g>
	</g>
</g>
</svg>
