<?xml version="1.0" encoding="utf-8"?>
<!-- Generator: Adobe Illustrator 22.0.1, SVG Export Plug-In . SVG Version: 6.00 Build 0)  -->
<svg version="1.1" id="Layer_1" xmlns="http://www.w3.org/2000/svg" xmlns:xlink="http://www.w3.org/1999/xlink" x="0px" y="0px"
	 viewBox="0 0 30 31" style="enable-background:new 0 0 30 31;" xml:space="preserve">
<style type="text/css">
	.st0{enable-background:new    ;}
	.st1{fill:#FFFFFF;}
</style>
<title>Cup - simple-line-icons</title>
<desc>Created with Sketch.</desc>
<g id="Design-3">
	<g id="_x33_" transform="translate(-676.000000, -416.000000)">
		<g id="Group-2" transform="translate(658.000000, 402.000000)">
			<g class="st0">
				<path class="st1" d="M42.4,27.2c1.5,0,2.9,0.6,4,1.7s1.6,2.4,1.6,4c0,1.5-0.5,2.9-1.6,4s-2.4,1.6-4,1.6c-0.1,0-0.3,0-0.7,0
					s-0.8,0-1.2,0v1c0,1.6-0.5,2.9-1.6,4s-2.4,1.6-4,1.6H23.6c-1.6,0-2.9-0.5-4-1.6s-1.6-2.4-1.6-4V25.3c0-0.5,0.2-0.9,0.5-1.3
					s0.8-0.6,1.3-0.6h18.8c0.5,0,1,0.2,1.3,0.6s0.5,0.8,0.5,1.3v1.9c0.4,0,0.8,0,1.2,0S42.3,27.2,42.4,27.2z M38.6,39.4V25.3H19.9
					v14.1c0,1,0.4,1.9,1.1,2.7s1.6,1.1,2.7,1.1h11.3c1,0,1.9-0.4,2.6-1.1S38.6,40.4,38.6,39.4z M23.6,21.6c-0.3,0-0.5-0.1-0.7-0.3
					s-0.3-0.4-0.3-0.7v-4.7c0-0.3,0.1-0.5,0.3-0.7s0.4-0.3,0.7-0.3s0.5,0.1,0.7,0.3s0.3,0.4,0.3,0.7v4.7c0,0.3-0.1,0.5-0.3,0.7
					S23.9,21.6,23.6,21.6z M29.2,21.6c-0.3,0-0.5-0.1-0.7-0.3s-0.3-0.4-0.3-0.7v-4.7c0-0.3,0.1-0.5,0.3-0.7S29,15,29.2,15
					s0.5,0.1,0.7,0.3s0.3,0.4,0.3,0.7v4.7c0,0.3-0.1,0.5-0.3,0.7S29.5,21.6,29.2,21.6z M34.9,21.6c-0.3,0-0.5-0.1-0.7-0.3
					s-0.3-0.4-0.3-0.7v-4.7c0-0.3,0.1-0.5,0.3-0.7s0.4-0.3,0.7-0.3s0.5,0.1,0.7,0.3s0.3,0.4,0.3,0.7v4.7c0,0.3-0.1,0.5-0.3,0.7
					S35.1,21.6,34.9,21.6z M42.4,36.6c1.1,0,1.9-0.4,2.7-1.1s1.1-1.6,1.1-2.7s-0.4-2-1.1-2.7s-1.6-1.1-2.7-1.1c-0.1,0-0.4,0-0.7,0
					s-0.7,0-1.2,0v7.5c0.4,0,0.8,0,1.2,0S42.3,36.6,42.4,36.6z"/>
			</g>
		</g>
	</g>
</g>
</svg>
