<?xml version="1.0" encoding="utf-8"?>
<!-- Generator: Adobe Illustrator 22.0.1, SVG Export Plug-In . SVG Version: 6.00 Build 0)  -->
<svg version="1.1" id="Layer_1" xmlns="http://www.w3.org/2000/svg" xmlns:xlink="http://www.w3.org/1999/xlink" x="0px" y="0px"
	 viewBox="0 0 30 24" style="enable-background:new 0 0 30 24;" xml:space="preserve">
<style type="text/css">
	.st0{enable-background:new    ;}
	.st1{fill:#FFFFFF;}
</style>
<title>Graduation - simple-line-icons</title>
<desc>Created with Sketch.</desc>
<g id="Design-3">
	<g id="_x33_" transform="translate(-388.000000, -419.000000)">
		<g id="Group" transform="translate(373.000000, 402.000000)">
			<g class="st0">
				<path class="st1" d="M44,34.4c0.3,0.2,0.5,0.4,0.7,0.7s0.3,0.6,0.3,1c0,0.5-0.2,0.9-0.5,1.3c-0.4,0.4-0.8,0.6-1.3,0.6
					s-1-0.2-1.3-0.6c-0.4-0.4-0.5-0.8-0.5-1.3c0-0.4,0.1-0.7,0.3-1s0.4-0.5,0.7-0.7v-6.6l-3.8,2c0,0.1,0.1,0.1,0.1,0.2
					c0,0.1,0,0.1,0,0.2v8.1c0,0.1,0,0.3-0.1,0.4S38.2,39,38.1,39c-0.1,0.1-0.7,0.4-1.9,0.9c-1.2,0.5-3.3,0.8-6.2,0.8s-5-0.3-6.2-0.8
					c-1.2-0.5-1.8-0.9-1.9-1c-0.1-0.1-0.2-0.2-0.2-0.3c0-0.1-0.1-0.3-0.1-0.4v-7.9c0-0.1,0-0.2,0-0.2s0-0.1,0.1-0.2l-6.2-3.3
					c-0.2-0.1-0.3-0.2-0.4-0.3S15,26,15,25.8s0-0.3,0.1-0.5s0.2-0.3,0.3-0.3l14-7.6c0.1-0.1,0.3-0.1,0.5-0.1c0.2,0,0.3,0,0.5,0.1
					l14.1,7.5c0.1,0.1,0.2,0.2,0.3,0.4s0.1,0.3,0.1,0.5c0,0.2,0,0.3-0.1,0.5s-0.2,0.3-0.4,0.4L44,26.8V34.4z M29.9,32.2l12.1-6.4
					L30,19.3l-12.1,6.5L29.9,32.2z M36.6,37.8v-7L30.4,34c-0.1,0-0.2,0.1-0.2,0.1c-0.1,0-0.1,0-0.2,0s-0.2,0-0.2,0s-0.1,0-0.2-0.1
					l-6.1-3.2v6.9c0.3,0.2,1,0.4,2,0.7s2.5,0.4,4.5,0.4s3.5-0.1,4.5-0.4S36.2,38,36.6,37.8z"/>
			</g>
		</g>
	</g>
</g>
</svg>
