<?xml version="1.0" encoding="UTF-8"?>
<svg width="315px" height="158px" viewBox="0 0 315 158" version="1.1" xmlns="http://www.w3.org/2000/svg" xmlns:xlink="http://www.w3.org/1999/xlink">
    <!-- Generator: Sketch 46.2 (44496) - http://www.bohemiancoding.com/sketch -->
    <title>Logo</title>
    <desc>Created with Sketch.</desc>
    <defs></defs>
    <g id="Design-3" stroke="none" stroke-width="1" fill="none" fill-rule="evenodd">
        <g id="1" transform="translate(-482.000000, -257.000000)" fill-rule="nonzero" fill="#FFFFFF">
            <g id="Logo" transform="translate(482.000000, 257.000000)">
                <g id="log-neo-adjust-lz-copy">
                    <path d="M72.6923077,141.411378 C72.6923077,142.086103 72.5860324,142.664438 72.4797571,143.242774 L58.9827935,143.242774 C59.1953441,144.785001 59.832996,146.038061 61.0020243,147.001954 C62.1710526,147.965846 63.5526316,148.447792 65.2530364,148.447792 C67.1659919,148.447792 68.9726721,147.773068 70.4605263,146.327229 L72.0546559,147.965846 C70.1417004,149.797241 67.909919,150.761134 65.1467611,150.761134 C62.5961538,150.761134 60.3643725,149.99002 58.6639676,148.351403 C56.9635628,146.809175 56.1133603,144.785001 56.1133603,142.47166 C56.1133603,140.158318 56.9635628,138.230534 58.6639676,136.591917 C60.3643725,134.9533 62.3836032,134.182186 64.9342105,134.182186 C67.1659919,134.182186 68.9726721,134.856911 70.4605263,136.20636 C71.9483806,137.652198 72.6923077,139.290815 72.6923077,141.411378 Z M64.8279352,136.591917 C63.4463563,136.591917 62.1710526,136.977474 61.1082996,137.844977 C60.0455466,138.71248 59.4078947,139.772762 59.0890688,141.122211 L69.9291498,141.122211 C69.9291498,139.676372 69.3977733,138.616091 68.4412955,137.844977 C67.4848178,136.977474 66.2095142,136.591917 64.8279352,136.591917 Z" id="Shape"></path>
                    <polygon id="Shape" points="133.906883 150.761134 127.209427 142.11567 133.357911 134.182186 130.173875 134.182186 125.672306 140.183155 121.170738 134.182186 117.876907 134.182186 124.025391 142.11567 117.327935 150.761134 120.621766 150.761134 125.672306 144.048186 130.722846 150.761134"></polygon>
                    <path d="M191.434671,134.57797 L193.846154,134.57797 L193.846154,149.221974 C193.846154,151.695623 193.142805,153.575597 191.736106,155.059786 C190.329407,156.44503 188.420317,157.137652 186.008833,157.137652 C182.994479,157.137652 180.482517,156.049246 178.37247,153.971381 L179.879647,152.190353 C181.788738,153.872435 183.798307,154.762948 185.908355,154.762948 C187.616489,154.762948 188.922709,154.268219 189.827015,153.377705 C190.731321,152.487191 191.233714,151.101948 191.233714,149.32092 L191.233714,147.935676 C190.530364,148.82619 189.726537,149.419866 188.621273,149.914596 C187.51601,150.409326 186.410747,150.607218 185.205006,150.607218 C182.894001,150.607218 180.98491,149.81565 179.477733,148.232514 C177.970556,146.649379 177.267206,144.769405 177.267206,142.394702 C177.267206,140.019999 177.970556,138.041079 179.477733,136.55689 C180.98491,134.973754 182.894001,134.182186 185.205006,134.182186 C186.511226,134.182186 187.716967,134.479024 188.82223,134.973754 C189.927494,135.468484 190.731321,136.260052 191.434671,137.150565 L191.434671,134.57797 L191.434671,134.57797 Z M185.707398,148.232514 C187.214575,148.232514 188.621273,147.737784 189.726537,146.748325 C190.8318,145.758865 191.434671,144.274675 191.434671,142.394702 C191.434671,140.514728 190.8318,139.030539 189.726537,138.041079 C188.621273,137.051619 187.315053,136.55689 185.707398,136.55689 C183.999264,136.55689 182.693044,137.051619 181.587781,138.140025 C180.482517,139.228431 179.980125,140.613674 179.980125,142.295756 C179.980125,143.977837 180.482517,145.363081 181.587781,146.451487 C182.693044,147.638838 184.099742,148.232514 185.707398,148.232514 Z" id="Shape"></path>
                    <path d="M257.611336,141.411378 C257.611336,142.086103 257.505061,142.664438 257.398785,143.242774 L243.901822,143.242774 C244.114372,144.785001 244.752024,146.038061 245.921053,147.001954 C247.090081,147.965846 248.47166,148.447792 250.172065,148.447792 C252.08502,148.447792 253.8917,147.773068 255.379555,146.327229 L256.973684,147.965846 C255.060729,149.797241 252.828947,150.761134 250.065789,150.761134 C247.515182,150.761134 245.283401,149.99002 243.582996,148.351403 C241.882591,146.809175 241.032389,144.785001 241.032389,142.47166 C241.032389,140.158318 241.882591,138.230534 243.582996,136.591917 C245.283401,134.9533 247.302632,134.182186 249.853239,134.182186 C252.08502,134.182186 253.8917,134.856911 255.379555,136.20636 C256.867409,137.555809 257.611336,139.290815 257.611336,141.411378 Z M249.746964,136.591917 C248.365385,136.591917 247.090081,136.977474 246.027328,137.844977 C244.964575,138.71248 244.326923,139.772762 244.008097,141.122211 L254.848178,141.122211 C254.848178,139.676372 254.316802,138.616091 253.360324,137.844977 C252.297571,136.977474 251.128543,136.591917 249.746964,136.591917 Z" id="Shape"></path>
                    <g id="neo-logo">
                        <g id="Shape">
                            <path d="M89.215371,96.9291135 L72.5200969,96.9291135 L72.5200969,41.8179422 C72.4157515,28.1703742 61.5638233,17.127304 48.207604,17.127304 L41.007767,17.127304 C27.6515477,17.127304 16.7996196,28.1703742 16.6952741,41.8179422 L16.6952741,96.9291135 L0,96.9291135 L0,41.8179422 C0,18.7941825 18.3648015,0.0417990796 41.007767,0.0417990796 L48.207604,0.0417990796 C70.8505695,0.0417990796 89.215371,18.7941825 89.215371,41.8179422 L89.215371,96.9291135 Z"></path>
                            <path d="M264.72444,96.9291135 C240.933675,96.9291135 219.751545,82.1355666 216.829873,60.0494261 L230.290437,40.2552436 C227.786146,70.4674169 248.133511,82.3439264 264.72444,82.3439264 C283.715314,82.3439264 299.158443,67.2378397 299.158443,48.5896362 C299.158443,29.9414327 283.715314,14.835346 264.72444,14.835346 C254.60293,14.835346 246.255293,17.9607432 238.74242,24.5240775 C231.438237,30.8790518 225.490546,39.734344 219.229818,49.2147156 C211.716945,60.4661457 203.995381,72.0301155 192.830416,81.1979474 C179.891579,91.7201181 164.657141,96.9291135 146.292339,96.9291135 C126.362356,96.9291135 108.310591,85.1567839 100.693372,67.0294799 C93.0761532,48.9021759 97.2499717,28.0661943 111.336609,14.2102666 C125.423247,0.354338804 146.605376,-3.81285752 165.074523,3.68809586 C183.54367,11.1890492 195.543398,28.8996336 195.543398,48.4854563 L195.543398,55.7780498 L112.6931,55.7780498 C116.240846,71.1966762 130.118793,82.2397465 146.292339,82.2397465 C179.265506,82.2397465 192.621725,62.2372041 206.812708,40.9845029 C213.386472,31.1915916 220.064582,21.0861405 228.829601,13.3768273 C239.159802,4.41735521 250.950839,0.0417990796 264.72444,0.0417990796 C291.958606,0.0417990796 314.079844,21.7112199 314.079844,48.4854563 C314.079844,75.2596926 291.958606,96.9291135 264.72444,96.9291135 L264.72444,96.9291135 Z M112.484409,40.9845029 L179.787233,40.9845029 C176.239487,25.4616966 162.257195,14.5228063 146.083648,14.5228063 C129.910102,14.5228063 116.032155,25.5658765 112.484409,40.9845029 L112.484409,40.9845029 Z"></path>
                        </g>
                        <path d="M302.497498,94.8455153 L302.497498,89.6365199 L300.514934,89.6365199 L300.514934,88.5947208 L305.732207,88.5947208 L305.732207,89.6365199 L303.749643,89.6365199 L303.749643,94.8455153 L302.497498,94.8455153 Z M306.775662,94.8455153 L306.775662,88.5947208 L308.758226,88.5947208 L309.906026,92.8660971 L311.053826,88.5947208 L313.03639,88.5947208 L313.03639,94.8455153 L311.784244,94.8455153 L311.784244,89.9490597 L310.532098,94.8455153 L309.279953,94.8455153 L308.027807,89.9490597 L308.027807,94.8455153 L306.775662,94.8455153 Z" id="TM"></path>
                    </g>
                    <path d="M11.363293,135.958502 C10.8817975,135.366397 9.72620838,134.182186 6.45203922,134.182186 C3.56306644,134.182186 2.11858004,135.366397 1.54078549,135.958502 C0.481495464,137.142713 0,138.622976 0,140.59666 L0,150.761134 L2.40747732,150.761134 L2.40747732,140.892713 C2.40747732,139.609818 2.79267369,138.524291 3.46676734,137.734818 C4.14086099,136.945344 5.10385192,136.550607 6.25944103,136.550607 C6.25944103,136.550607 6.35574013,136.550607 6.35574013,136.550607 L6.35574013,136.550607 C6.35574013,136.550607 6.35574013,136.550607 6.35574013,136.550607 C6.35574013,136.550607 6.35574013,136.550607 6.35574013,136.550607 L6.35574013,136.550607 C6.35574013,136.550607 6.45203922,136.550607 6.45203922,136.550607 C7.60762833,136.550607 8.57061926,136.945344 9.24471291,137.734818 C9.91880656,138.524291 10.3040029,139.609818 10.3040029,140.892713 L10.3040029,150.761134 L12.7114803,150.761134 L12.7114803,140.59666 C12.9040784,138.622976 12.422583,137.142713 11.363293,135.958502 Z" id="Shape"></path>
                    <path d="M309.784346,135.958502 C309.30285,135.366397 308.147261,134.182186 304.873092,134.182186 C301.984119,134.182186 300.539633,135.366397 299.961838,135.958502 C298.902548,137.142713 298.421053,138.622976 298.421053,140.59666 L298.421053,150.761134 L300.82853,150.761134 L300.82853,140.892713 C300.82853,139.609818 301.213726,138.524291 301.88782,137.734818 C302.561914,136.945344 303.524905,136.550607 304.680494,136.550607 C304.680494,136.550607 304.776793,136.550607 304.776793,136.550607 L304.776793,136.550607 C304.776793,136.550607 304.776793,136.550607 304.776793,136.550607 C304.776793,136.550607 304.776793,136.550607 304.776793,136.550607 L304.776793,136.550607 C304.776793,136.550607 304.873092,136.550607 304.873092,136.550607 C306.028681,136.550607 306.991672,136.945344 307.665766,137.734818 C308.339859,138.524291 308.725056,139.609818 308.725056,140.892713 L308.725056,150.761134 L311.132533,150.761134 L311.132533,140.59666 C311.325131,138.622976 310.843636,137.142713 309.784346,135.958502 Z" id="Shape"></path>
                </g>
            </g>
        </g>
    </g>
</svg>